# xmcd
#
# Track frame offsets: 
#        150
#        16987
#        33942
#        46860
#        58857
#        71290
#        81195
#        94017
#        110417
#        121985
#        135795
#        152330
#        163177
#        174932
#        187202
#        200607
#        212865
#        231422
#
# Disc length: 3460 seconds
#
# Revision: 2
# Processed by: cddbd v1.5.2PL0 Copyright (c) Steve Scherf et al.
# Submitted via: ExactAudioCopy v0.99pb5
#
DISCID=ed0d8212
DTITLE=George Jones - My Very Special Guests (Legacy Edition) - Disc 1
DYEAR=2005
DGENRE=Country
TTITLE0=Night Life ...with Waylon Jennings
TTITLE1=Bartender's Blues ...with James Taylor
TTITLE2=Here We Are ...with Emmylou Harris
TTITLE3=I've Turned You to Stone ...with Linda Ronstadt
TTITLE4=It Sure Was Good ...with Tammy Wynette
TTITLE5=I Gotta Get Drunk ...with Willie Nelson
TTITLE6=Proud Mary ...with Johnny Paycheck
TTITLE7=Stranger in the House ...with Elvis Costello
TTITLE8=I Still Hold Her Body (But I Think I've Lost Her Mind) ...with
TTITLE8=Dennis and Ray Of Dr. Hook
TTITLE9=Will the Circle Be Unbroken ...with Pop And Mavis Staples
TTITLE10=A Few Ole Country Boys ...with Randy Travis
TTITLE11=It Hurts as Much in Texas (As It Did in Tennessee) ...with Ri
TTITLE11=cky Van Shelton
TTITLE12=You Never Looked That Good When You Were Mine ...with Patti P
TTITLE12=age
TTITLE13=All I Want to Do in Life ...with Janie Fricke
TTITLE14=Wonderful World Outside ...with Ralph Stanley
TTITLE15=You Can't Do Wrong and Get By ...with Ricky Skaggs
TTITLE16=George Jones and Patty Loveless - You Don't Seem to Miss Me ...
TTITLE16=with Patty Loveless
TTITLE17=Patches ...with B.B.King
EXTD=
EXTT0=
EXTT1=
EXTT2=
EXTT3=
EXTT4=
EXTT5=
EXTT6=
EXTT7=
EXTT8=
EXTT9=
EXTT10=
EXTT11=
EXTT12=
EXTT13=
EXTT14=
EXTT15=
EXTT16=
EXTT17=
PLAYORDER=
